<svg fill="none" height="64" viewBox="0 0 64 64" width="64" xmlns="http://www.w3.org/2000/svg" xmlns:xlink="http://www.w3.org/1999/xlink"><linearGradient id="a" gradientUnits="userSpaceOnUse" x1="64" x2="10.1333" y1="17.0667" y2="56"><stop offset="0" stop-color="#a9e09a"/><stop offset="1" stop-color="#16a774"/></linearGradient><mask id="b" height="35" maskUnits="userSpaceOnUse" width="23" x="21" y="15"><path clip-rule="evenodd" d="m21.1484 15h21.9922v34.6364h-21.9922z" fill="#fff" fill-rule="evenodd"/></mask><mask id="c" height="14" maskUnits="userSpaceOnUse" width="38" x="13" y="24"><path clip-rule="evenodd" d="m13 24.5767h38v13.3028h-38z" fill="#fff" fill-rule="evenodd"/></mask><circle cx="32" cy="32" fill="url(#a)" r="32"/><path clip-rule="evenodd" d="m34.3428 31.8484c.2612 1.2086-.5069 2.4002-1.716 2.6614-1.2086.2612-2.4002-.5069-2.6614-1.716-.2607-1.2086.5074-2.4003 1.716-2.6615 1.2086-.2606 2.4002.5075 2.6614 1.7161z" fill="#fff" fill-rule="evenodd"/><g mask="url(#b)"><path clip-rule="evenodd" d="m39.197 49.6366c-1.6944 0-3.7459-1.0561-5.9503-3.0937-2.7609-2.5532-5.5233-6.3928-7.7772-10.8126-2.2539-4.4197-3.7402-8.91-4.1858-12.644-.4765-3.9957.3153-6.7339 2.2292-7.7102 1.6965-.8645 3.9499-.2323 6.517 1.8304.3385.2721.3926.7682.12 1.1066-.272.339-.7676.3931-1.1066.1211-1.9891-1.5986-3.7438-2.2013-4.8153-1.6553-1.2457.6353-1.762 2.9237-1.3807 6.1209.4235 3.5542 1.8531 7.857 4.0251 12.115 2.1715 4.2584 4.8148 7.942 7.4433 10.3721 2.3641 2.1859 4.5186 3.1122 5.7654 2.4764 2.4192-1.2338 2.0936-8.5355-2.2467-17.4388-.1907-.3905-.0279-.8619.3632-1.052.391-.1901.8619-.0288 1.0525.3627 4.5227 9.2773 5.1873 17.6737 1.546 19.5304-.4858.2484-1.0216.371-1.5991.371z" fill="#fff" fill-rule="evenodd"/></g><g mask="url(#c)"><path clip-rule="evenodd" d="m45.9447 37.8795c-.3138 0-.611-.1891-.7326-.4992-.1592-.4044.0392-.8614.4436-1.0206 2.3667-.9325 3.7046-2.1097 3.7675-3.3141.1458-2.8011-6.8478-6.294-17.1148-6.8282-4.7726-.2468-9.2851.1993-12.7043 1.2606-3.0751.9546-4.9545 2.3585-5.0271 3.7546-.0629 1.205 1.1457 2.5146 3.4027 3.6872.3859.2004.5363.6754.3359 1.0607-.2009.3859-.6764.5363-1.0612.3364-2.8784-1.496-4.3482-3.2817-4.2498-5.1662.1113-2.1452 2.2895-3.9833 6.1327-5.1765 3.5919-1.1143 8.2975-1.5868 13.2525-1.3286 10.8291.563 18.8278 4.2095 18.6057 8.4814-.0979 1.8845-1.7449 3.5088-4.7623 4.6979-.0948.0365-.1927.0546-.2885.0546z" fill="#fff" fill-rule="evenodd"/></g><path clip-rule="evenodd" d="m23.4112 48.6935c-.7548 0-1.4266-.1834-2-.5553-1.8015-1.1695-2.3049-3.9746-1.4162-7.8993.83-3.668 2.7748-7.9801 5.4753-12.1417 2.7001-4.1622 5.8458-7.6947 8.857-9.9476 3.223-2.4105 5.99-3.0942 7.7916-1.9242 1.7016 1.104 2.2446 3.5794 1.5703 7.1589-.0804.4276-.4931.7084-.9196.6275-.4271-.0804-.7079-.492-.628-.9191.5311-2.8175.2101-4.8391-.88-5.5469-1.1725-.7614-3.4125-.0639-5.9905 1.8649-2.8664 2.1442-5.8782 5.5336-8.4798 9.5432-2.6022 4.0102-4.4702 8.1409-5.2605 11.6328-.7115 3.14-.4354 5.4696.7377 6.2306 1.1411.7403 3.225.1349 5.7175-1.6636.3529-.2545.8454-.1751 1.0994.1778.2545.3524.1751.8438-.1778 1.0989-2.0751 1.4976-3.9571 2.2631-5.4964 2.2631z" fill="#fff" fill-rule="evenodd"/></svg>